<svg width="22" height="20" viewBox="0 0 22 20" fill="none" xmlns="http://www.w3.org/2000/svg">
<g clip-path="url(#clip0_2221_194)">
<path d="M7.53467 0.657779C5.37369 1.35101 3.51006 2.66679 2.21752 4.41184C0.924982 6.1569 0.271666 8.23925 0.353534 10.353C0.435401 12.4668 1.24814 14.5006 2.67236 16.1557C4.09659 17.8108 6.05723 18.9999 8.26631 19.5484C10.0573 19.9757 11.9336 19.9945 13.7342 19.6031C15.3653 19.2643 16.8732 18.5396 18.1105 17.5C19.3982 16.3849 20.3328 14.9663 20.814 13.3968C21.3368 11.69 21.4299 9.89519 21.086 8.14997H11.029V12.0078H16.8533C16.7369 12.6231 16.4875 13.2103 16.1199 13.7344C15.7524 14.2585 15.2743 14.7086 14.7142 15.0578C14.0031 15.493 13.2013 15.7857 12.3604 15.9172C11.5172 16.0622 10.6523 16.0622 9.809 15.9172C8.95427 15.7539 8.14573 15.4277 7.43498 14.9593C6.29299 14.2118 5.43552 13.1498 4.98492 11.925C4.52682 10.6771 4.52682 9.32437 4.98492 8.07653C5.30567 7.20187 5.83591 6.40549 6.53606 5.74684C7.3373 4.97926 8.35169 4.43059 9.46795 4.16102C10.5842 3.89146 11.7592 3.91142 12.864 4.21872C13.7271 4.4636 14.5163 4.89165 15.1687 5.46872C15.8254 4.86455 16.481 4.25882 17.1355 3.65153C17.4735 3.32497 17.8418 3.01403 18.1747 2.67965C17.1787 1.82265 16.0096 1.15575 14.7345 0.717154C12.4123 -0.0625494 9.87148 -0.0835032 7.53467 0.657779Z" fill="white"/>
<path d="M7.53465 0.65805C9.87127 -0.0837359 12.4121 -0.0633337 14.7344 0.715863C16.0098 1.15744 17.1783 1.82755 18.173 2.68774C17.835 3.02211 17.4785 3.33461 17.1338 3.65961C16.4782 4.26482 15.8232 4.86795 15.1687 5.46899C14.5163 4.89192 13.727 4.46387 12.864 4.21899C11.7595 3.91061 10.5846 3.8895 9.46803 4.15796C8.35148 4.42642 7.33647 4.97408 6.53435 5.74086C5.8342 6.39951 5.30396 7.19589 4.98321 8.07055L1.48047 5.56274C2.73424 3.26361 4.90506 1.50496 7.53465 0.65805Z" fill="#E33629"/>
<path d="M0.551314 8.04688C0.739444 7.18402 1.05201 6.34843 1.48065 5.5625L4.98339 8.07656C4.52529 9.3244 4.52529 10.6772 4.98339 11.925C3.81637 12.7583 2.64879 13.5958 1.48065 14.4375C0.407945 12.463 0.0807892 10.2133 0.551314 8.04688Z" fill="#F8BD00"/>
<path d="M11.0291 8.14844H21.0861C21.43 9.89366 21.3369 11.6885 20.8141 13.3953C20.3329 14.9648 19.3983 16.3834 18.1106 17.4984C16.9802 16.6828 15.8447 15.8734 14.7143 15.0578C15.2747 14.7082 15.7531 14.2576 16.1207 13.733C16.4882 13.2084 16.7375 12.6205 16.8535 12.0047H11.0291C11.0274 10.7203 11.0291 9.43438 11.0291 8.14844Z" fill="#587DBD"/>
<path d="M1.47852 14.4373C2.64666 13.604 3.81424 12.7665 4.98126 11.9248C5.43276 13.1501 6.29145 14.2121 7.4347 14.9592C8.14766 15.4254 8.95795 15.7489 9.81379 15.9092C10.657 16.0542 11.522 16.0542 12.3652 15.9092C13.2061 15.7778 14.0078 15.485 14.719 15.0498C15.8494 15.8654 16.9849 16.6748 18.1153 17.4904C16.8782 18.5306 15.3702 19.2559 13.739 19.5951C11.9384 19.9865 10.062 19.9678 8.27109 19.5404C6.85463 19.1907 5.53155 18.5742 4.38479 17.7295C3.17113 16.8383 2.1798 15.7153 1.47852 14.4373Z" fill="#319F43"/>
</g>
<defs>
<clipPath id="clip0_2221_194">
<rect width="21.6281" height="20" fill="white"/>
</clipPath>
</defs>
</svg>
