<svg width="553" height="553" viewBox="0 0 553 553" fill="none" xmlns="http://www.w3.org/2000/svg">
<path d="M276.5 75.6969C276.03 75.6969 275.648 75.3154 275.648 74.8453V1.07623C275.648 0.606179 276.03 0.224609 276.5 0.224609C276.97 0.224609 277.352 0.606179 277.352 1.07623V74.8453C277.352 75.3154 276.97 75.6969 276.5 75.6969Z" fill="#2D3962"/>
<path d="M319.876 105.216C319.876 81.2601 300.456 61.8398 276.5 61.8398C252.544 61.8398 233.124 81.2601 233.124 105.216H319.876Z" fill="#F4B04E"/>
<mask id="mask0_838_828" style="mask-type:luminance" maskUnits="userSpaceOnUse" x="233" y="61" width="87" height="45">
<path d="M319.876 105.216C319.876 81.2601 300.456 61.8398 276.5 61.8398C252.544 61.8398 233.124 81.2601 233.124 105.216H319.876Z" fill="white"/>
</mask>
<g mask="url(#mask0_838_828)">
<g opacity="0.47">
<path d="M307.863 64.8658C300.87 70.3537 291.078 72.0548 282.643 69.2466C280.477 68.5255 278.358 67.5202 276.079 67.3708C270.712 67.0191 266.15 71.4044 260.829 72.1875C254.711 73.0889 249.038 69.1603 244.103 65.4342C244.103 65.4342 260.91 49.4149 277.885 52.7274C294.86 56.0399 307.863 64.8658 307.863 64.8658Z" fill="white"/>
</g>
</g>
<mask id="mask1_838_828" style="mask-type:luminance" maskUnits="userSpaceOnUse" x="233" y="61" width="87" height="45">
<path d="M319.876 105.216C319.876 81.2601 300.456 61.8398 276.5 61.8398C252.544 61.8398 233.124 81.2601 233.124 105.216H319.876Z" fill="white"/>
</mask>
<g mask="url(#mask1_838_828)">
<g opacity="0.52">
<path d="M226.856 90.3667C236.537 86.03 247.923 85.6529 257.87 89.3392C263.339 91.3665 268.601 94.6082 274.435 94.5927C279.651 94.5783 284.477 91.9394 289.599 90.9573C294.075 90.099 298.793 90.5414 303.032 92.217C304.858 92.9392 306.615 93.8893 308.544 94.2576C311.598 94.8415 314.715 93.9081 317.821 93.772C322.79 93.5542 327.817 95.4919 331.353 98.9913L330.003 117.457L226.01 111.276L226.856 90.3667Z" fill="#D89741"/>
</g>
</g>
<g opacity="0.15">
<path d="M232.733 105.507L101.018 494.538H458.575L319.486 105.507H232.733Z" fill="#F4CE2C"/>
</g>
<path d="M197.109 391.591C200.664 391.605 203.698 389.008 204.217 385.49C206.008 373.332 205.363 329.906 195.244 324.198C176.319 313.523 162.732 321.287 151.086 313.038C139.44 304.788 143.638 266.242 123.911 261.601C90.9138 253.837 60.6326 264.367 60.6326 264.367L58.623 314.025L83.6352 391.164L197.109 391.591Z" fill="#56B2A1"/>
<path d="M141.044 289.653C141.044 289.653 136.22 341.268 148.709 345.351C161.994 349.694 201.219 341.972 204.43 361.703C204.43 361.703 208.08 335.54 200.319 327.467C185.48 312.032 159.594 319.629 153.628 314.122C147.664 308.615 141.044 289.653 141.044 289.653Z" fill="#2D3962"/>
<path d="M199.188 492.783L135.072 457.666V399.32H178.659C183.798 399.32 187.966 395.154 187.966 390.013H84.12C84.12 395.154 88.2863 399.32 93.427 399.32H129.734V458.093L66.3975 492.783L77.2916 492.553L129.734 476.094V492.673H135.071V475.85L188.293 492.553L199.188 492.783Z" fill="#2D3962"/>
<path d="M266.009 464.526L256.189 449.211L242.581 458.352L254.24 475.351L266.009 464.526Z" fill="#FFCEAB"/>
<path d="M262.124 457.506L248.311 466.775L252.89 473.572L265.692 463.732L262.124 457.506Z" fill="white"/>
<path d="M295.414 458.77C286.212 462.098 271.573 467.69 271.573 467.69L266.875 462.202L251.306 472.961C251.306 472.961 259.702 488.545 260.614 489.944C261.525 491.343 263.523 494.922 265.965 493.442C272.189 489.667 307.571 465.694 313.038 460.238C314.417 458.862 311.934 455.534 307.597 455.231C303.588 454.951 297.963 457.848 295.414 458.77Z" fill="#459687"/>
<path d="M272.947 477.819C272.137 477.819 271.441 477.36 270.964 476.5C270.212 475.146 269.93 468.367 270.057 466.853C270.078 466.598 270.246 466.378 270.487 466.292C270.726 466.207 270.996 466.267 271.176 466.449C272.51 467.805 275.441 472.631 275.269 475.499C275.192 476.802 274.483 477.617 273.275 477.796C273.164 477.811 273.054 477.819 272.947 477.819ZM271.342 468.804C271.406 471.351 271.73 475.181 272.108 475.863C272.509 476.583 272.912 476.524 273.084 476.498C273.51 476.435 273.911 476.262 273.962 475.42C274.066 473.675 272.586 470.693 271.342 468.804Z" fill="#2D3962"/>
<path d="M277.672 474.572C277.328 474.572 276.932 474.491 276.483 474.28C275.081 473.618 270.892 468.282 270.113 466.979C269.981 466.76 269.99 466.483 270.134 466.272C270.278 466.062 270.532 465.96 270.785 465.996C272.66 466.318 277.856 468.522 279.393 470.951C280.091 472.053 279.992 473.128 279.115 473.978C278.848 474.239 278.368 474.572 277.672 474.572ZM272.295 467.813C273.834 469.843 276.335 472.763 277.039 473.095C277.786 473.446 278.079 473.163 278.202 473.039C278.51 472.739 278.735 472.364 278.285 471.652C277.35 470.175 274.407 468.618 272.295 467.813Z" fill="#2D3962"/>
<path d="M262.479 492.66C262.271 492.66 262.066 492.561 261.939 492.377C261.734 492.08 261.809 491.671 262.106 491.467L311.88 457.127C312.179 456.92 312.585 456.998 312.79 457.294C312.996 457.592 312.92 458 312.623 458.205L262.851 492.544C262.737 492.622 262.607 492.66 262.479 492.66Z" fill="#2D3962"/>
<path d="M286.454 466.397C286.097 466.397 285.805 466.111 285.799 465.752C285.748 462.252 286.536 460.818 286.625 460.666C286.81 460.355 287.209 460.252 287.522 460.436C287.831 460.619 287.935 461.016 287.756 461.327C287.738 461.358 287.062 462.625 287.108 465.732C287.113 466.094 286.825 466.392 286.463 466.397C286.46 466.397 286.457 466.397 286.454 466.397Z" fill="#2D3962"/>
<path d="M282.616 467.929C282.259 467.929 281.967 467.643 281.961 467.284C281.91 463.782 282.698 462.349 282.789 462.198C282.972 461.887 283.372 461.781 283.686 461.969C283.994 462.151 284.098 462.548 283.919 462.86C283.899 462.894 283.226 464.161 283.271 467.265C283.276 467.627 282.988 467.925 282.626 467.929C282.623 467.929 282.619 467.929 282.616 467.929Z" fill="#2D3962"/>
<path d="M279.058 469.148C278.7 469.148 278.408 468.861 278.403 468.503C278.351 465.002 279.138 463.569 279.228 463.416C279.413 463.106 279.812 463.003 280.125 463.186C280.433 463.37 280.537 463.767 280.358 464.078C280.344 464.104 279.665 465.369 279.711 468.483C279.717 468.845 279.428 469.142 279.066 469.148C279.064 469.148 279.061 469.148 279.058 469.148Z" fill="#2D3962"/>
<path d="M152.669 321.663C174.352 341.658 197.986 354.406 218.412 379.215C238.837 404.025 247.644 426.373 261.725 451.122C255.641 455.644 243.748 465.408 239.131 464.184C236.196 463.405 202.599 421.815 182.04 400.405C171.047 388.959 139.798 385.201 122.303 376.667C107.936 369.659 100.037 356.764 105.585 316.227" fill="#AACBF2"/>
<path d="M266.481 340.051L257.05 337.184L232.122 493.701L239.087 493.963L266.481 340.051Z" fill="#2D3962"/>
<path d="M271.246 338.335H251.415V346.268H271.246V338.335Z" fill="#468E80"/>
<path d="M430.426 340.051L439.857 337.184L464.785 493.701L457.82 493.963L430.426 340.051Z" fill="#2D3962"/>
<path d="M425.661 346.268H445.491V338.335H425.661V346.268Z" fill="#468E80"/>
<path d="M448.243 331.451H248.057V342.034H448.243V331.451Z" fill="#56B2A1"/>
<path d="M265.446 312.704C265.446 312.704 272.389 302.268 270.461 293.91C269.447 289.514 265.925 286.455 262.801 283.481C258.882 279.751 257.716 277.626 257.545 272.051C257.472 269.671 257.287 267.204 256.137 265.118C254.988 263.033 252.612 261.441 250.282 261.93C248.17 262.372 246.67 264.406 246.266 266.525C245.861 268.644 246.354 270.829 247.004 272.886C248.395 277.295 250.561 281.538 253.651 285.003C256.446 288.136 261.198 290.385 263.136 294.157C267.565 302.781 265.446 312.704 265.446 312.704Z" fill="white"/>
<path d="M252.923 292.746C254.659 292.038 256.768 293.163 258.239 294.328C259.709 295.493 260.314 297.947 258.952 299.237C257.919 300.216 256.243 300.119 254.938 299.552C253.427 298.898 252.106 297.594 251.846 295.968C251.587 294.343 252.136 293.067 252.923 292.746Z" fill="white"/>
<path d="M264.068 274.619C265.852 273.684 269.339 274.803 269.014 277.213C268.888 278.142 268.154 278.934 267.263 279.225C266.372 279.516 265.363 279.337 264.567 278.842C263.836 278.388 263.258 277.651 263.104 276.805C262.905 275.708 263.348 274.996 264.068 274.619Z" fill="white"/>
<path d="M279.303 313.127C279.29 313.127 279.275 313.127 279.261 313.127C278.883 313.13 278.514 313.173 278.156 313.247L278.647 309.208L254.41 309.264L256.888 331.3C260.293 332.859 275.895 331.837 275.895 331.837L276.853 323.959C277.611 324.322 278.437 324.533 279.301 324.533C279.315 324.533 279.331 324.533 279.345 324.533C280.869 324.522 282.297 323.919 283.366 322.834C284.435 321.749 285.018 320.311 285.007 318.788C284.984 315.657 282.43 313.127 279.303 313.127ZM281.627 321.119C281.016 321.739 280.199 322.084 279.327 322.091C279.318 322.091 279.311 322.091 279.301 322.091C278.511 322.091 277.771 321.799 277.178 321.286L277.829 315.939C278.267 315.715 278.754 315.574 279.279 315.571C279.287 315.571 279.295 315.571 279.304 315.571C281.09 315.571 282.551 317.017 282.565 318.807C282.571 319.676 282.238 320.498 281.627 321.119Z" fill="#F4B04E"/>
<mask id="mask2_838_828" style="mask-type:luminance" maskUnits="userSpaceOnUse" x="254" y="309" width="32" height="24">
<path d="M279.303 313.127C279.29 313.127 279.275 313.127 279.261 313.127C278.883 313.13 278.514 313.173 278.156 313.247L278.647 309.208L254.41 309.264L256.888 331.3C260.293 332.859 275.895 331.837 275.895 331.837L276.853 323.959C277.611 324.322 278.437 324.533 279.301 324.533C279.315 324.533 279.331 324.533 279.345 324.533C280.869 324.522 282.297 323.919 283.366 322.834C284.435 321.749 285.018 320.311 285.007 318.788C284.984 315.657 282.43 313.127 279.303 313.127ZM281.627 321.119C281.016 321.739 280.199 322.084 279.327 322.091C279.318 322.091 279.311 322.091 279.301 322.091C278.511 322.091 277.771 321.799 277.178 321.286L277.829 315.939C278.267 315.715 278.754 315.574 279.279 315.571C279.287 315.571 279.295 315.571 279.304 315.571C281.09 315.571 282.551 317.017 282.565 318.807C282.571 319.676 282.238 320.498 281.627 321.119Z" fill="white"/>
</mask>
<g mask="url(#mask2_838_828)">
<g opacity="0.52">
<path d="M282.765 321.173C280.191 320.108 277.248 320.802 274.62 321.727C271.993 322.651 269.332 323.813 266.553 323.644C264.874 323.542 263.244 322.953 261.563 322.955C258.361 322.956 255.585 325.044 253.076 327.032C252.852 327.21 253.307 327.533 253.021 327.522L253.524 335.675L281.925 332.503L282.765 321.173Z" fill="#D89741"/>
</g>
</g>
<mask id="mask3_838_828" style="mask-type:luminance" maskUnits="userSpaceOnUse" x="254" y="309" width="32" height="24">
<path d="M279.303 313.127C279.29 313.127 279.275 313.127 279.261 313.127C278.883 313.13 278.514 313.173 278.156 313.247L278.647 309.208L254.41 309.264L256.888 331.3C260.293 332.859 275.895 331.837 275.895 331.837L276.853 323.959C277.611 324.322 278.437 324.533 279.301 324.533C279.315 324.533 279.331 324.533 279.345 324.533C280.869 324.522 282.297 323.919 283.366 322.834C284.435 321.749 285.018 320.311 285.007 318.788C284.984 315.657 282.43 313.127 279.303 313.127ZM281.627 321.119C281.016 321.739 280.199 322.084 279.327 322.091C279.318 322.091 279.311 322.091 279.301 322.091C278.511 322.091 277.771 321.799 277.178 321.286L277.829 315.939C278.267 315.715 278.754 315.574 279.279 315.571C279.287 315.571 279.295 315.571 279.304 315.571C281.09 315.571 282.551 317.017 282.565 318.807C282.571 319.676 282.238 320.498 281.627 321.119Z" fill="white"/>
</mask>
<g mask="url(#mask3_838_828)">
<g opacity="0.47">
<path d="M250.704 313.361C252.821 313.835 254.733 314.941 256.744 315.758C258.755 316.573 261.036 317.097 263.077 316.36C265.209 315.592 266.805 313.543 269.047 313.208C269.988 313.068 270.943 313.251 271.891 313.33C275.236 313.608 278.676 312.515 281.247 310.356L280.264 304.327L251.42 305.048L250.704 313.361Z" fill="white"/>
</g>
</g>
<path d="M381.925 309.082L388.051 331.396H330.733L351.735 325.709L346.047 309.519L381.925 309.082Z" fill="#2D3962"/>
<path d="M307.12 312.243H427.742C434.911 312.243 441.009 306.036 442.108 297.62L450.397 234.171C451.764 223.703 444.949 214.253 436.03 214.253H315.408C308.239 214.253 302.141 220.46 301.041 228.876L292.753 292.325C291.386 302.793 298.202 312.243 307.12 312.243Z" fill="#56B2A1"/>
<path d="M292.754 292.325C291.387 302.793 298.202 312.243 307.121 312.243H427.743C434.912 312.243 441.01 306.036 442.109 297.62L442.765 292.974L292.754 292.325Z" fill="#2D3962"/>
<path d="M335.269 280.434H397.457C401.153 280.434 404.298 277.235 404.864 272.896L409.137 240.184C409.842 234.786 406.328 229.915 401.731 229.915H339.542C335.846 229.915 332.702 233.114 332.135 237.453L327.862 270.165C327.156 275.562 330.671 280.434 335.269 280.434Z" fill="white"/>
<path d="M348.375 270.472H386.036C388.274 270.472 390.178 268.534 390.522 265.906L393.11 246.096C393.537 242.828 391.409 239.877 388.624 239.877H350.963C348.725 239.877 346.821 241.815 346.477 244.443L343.889 264.253C343.464 267.521 345.591 270.472 348.375 270.472Z" fill="#E8E8E8"/>
<path d="M393.067 245.555C393.494 242.286 391.407 239.877 388.623 239.877H350.963C348.724 239.877 346.905 241.481 346.301 245.404L393.067 245.555Z" fill="#56B2A1"/>
<mask id="mask4_838_828" style="mask-type:luminance" maskUnits="userSpaceOnUse" x="343" y="239" width="51" height="32">
<path d="M348.375 270.472H386.036C388.274 270.472 390.178 268.534 390.522 265.906L393.11 246.096C393.537 242.828 391.409 239.877 388.624 239.877H350.963C348.725 239.877 346.821 241.815 346.477 244.443L343.889 264.253C343.464 267.521 345.591 270.472 348.375 270.472Z" fill="white"/>
</mask>
<g mask="url(#mask4_838_828)">
<path d="M366.311 253.822C368.654 251.769 372.216 252.004 374.269 254.345C376.322 256.687 376.087 260.25 373.746 262.303C371.403 264.355 367.841 264.121 365.788 261.779C363.734 259.437 363.969 255.875 366.311 253.822Z" fill="#F4B04E"/>
</g>
<mask id="mask5_838_828" style="mask-type:luminance" maskUnits="userSpaceOnUse" x="343" y="239" width="51" height="32">
<path d="M348.375 270.472H386.036C388.274 270.472 390.178 268.534 390.522 265.906L393.11 246.096C393.537 242.828 391.409 239.877 388.624 239.877H350.963C348.725 239.877 346.821 241.815 346.477 244.443L343.889 264.253C343.464 267.521 345.591 270.472 348.375 270.472Z" fill="white"/>
</mask>
<g mask="url(#mask5_838_828)">
<path d="M388.173 271.906C386.987 266.261 381.245 252.94 380.171 251.693C376.305 255.466 373.663 258.186 369.984 261.949C368.021 259.609 360.693 248.58 360.465 248.62C360.178 248.67 346.231 270.29 345.763 271.677L388.173 271.906Z" fill="#2D3962"/>
</g>
<path d="M339.392 233.358C339.825 233.358 340.177 233.006 340.177 232.572C340.177 232.139 339.825 231.787 339.392 231.787C338.958 231.787 338.606 232.139 338.606 232.572C338.606 233.006 338.958 233.358 339.392 233.358Z" fill="#F4B04E"/>
<path d="M343.094 232.572C343.094 233.006 342.742 233.358 342.309 233.358C341.875 233.358 341.523 233.006 341.523 232.572C341.523 232.139 341.875 231.787 342.309 231.787C342.742 231.787 343.094 232.139 343.094 232.572Z" fill="#56B2A1"/>
<path d="M351.579 241.893C351.579 242.326 351.228 242.678 350.794 242.678C350.36 242.678 350.009 242.326 350.009 241.893C350.009 241.459 350.36 241.107 350.794 241.107C351.229 241.109 351.579 241.459 351.579 241.893Z" fill="#F4B04E"/>
<path d="M354.496 241.893C354.496 242.326 354.145 242.678 353.711 242.678C353.277 242.678 352.926 242.326 352.926 241.893C352.926 241.459 353.277 241.107 353.711 241.107C354.145 241.107 354.496 241.459 354.496 241.893Z" fill="white"/>
<path d="M370.918 304.314H356.638C355.721 304.314 354.978 303.571 354.978 302.654C354.978 301.737 355.721 300.994 356.638 300.994H370.918C371.835 300.994 372.578 301.737 372.578 302.654C372.58 303.57 371.835 304.314 370.918 304.314Z" fill="#56B2A1"/>
<path d="M61.2048 264.026C61.2048 264.026 58.7119 308.67 77.1633 313.038C95.6147 317.405 122.544 312.552 130.023 329.536C137.503 346.52 136.507 391.649 136.507 391.649L84.6432 391.163C84.6432 391.163 49.134 393.197 48.738 353.314C48.4372 323.166 41.257 276.158 61.2048 264.026Z" fill="#2D3962"/>
<path d="M365.561 89.3637C365.188 89.3637 364.886 89.0607 364.886 88.6869V81.6339C364.886 81.2601 365.188 80.957 365.561 80.957C365.935 80.957 366.237 81.2601 366.237 81.6339V88.6869C366.237 89.0607 365.935 89.3637 365.561 89.3637Z" fill="#2D3962"/>
<path d="M369.088 85.8367H362.035C361.661 85.8367 361.359 85.5336 361.359 85.1598C361.359 84.786 361.661 84.4829 362.035 84.4829H369.088C369.462 84.4829 369.764 84.786 369.764 85.1598C369.764 85.5336 369.461 85.8367 369.088 85.8367Z" fill="#2D3962"/>
<path d="M166.992 129.536C165.595 129.536 164.459 128.399 164.459 127.002C164.459 125.606 165.596 124.47 166.992 124.47C168.387 124.47 169.526 125.607 169.526 127.002C169.526 128.399 168.389 129.536 166.992 129.536ZM166.992 125.822C166.341 125.822 165.812 126.352 165.812 127.002C165.812 127.653 166.341 128.183 166.992 128.183C167.642 128.183 168.172 127.653 168.172 127.002C168.172 126.352 167.643 125.822 166.992 125.822Z" fill="#2D3962"/>
<path d="M271.234 137.139C270.861 137.139 270.558 136.836 270.558 136.462V129.409C270.558 129.035 270.861 128.732 271.234 128.732C271.608 128.732 271.911 129.035 271.911 129.409V136.462C271.911 136.836 271.608 137.139 271.234 137.139Z" fill="#2D3962"/>
<path d="M274.761 133.613H267.708C267.334 133.613 267.031 133.309 267.031 132.936C267.031 132.562 267.334 132.259 267.708 132.259H274.761C275.135 132.259 275.438 132.562 275.438 132.936C275.438 133.309 275.135 133.613 274.761 133.613Z" fill="#2D3962"/>
<path d="M285.786 195.495C284.389 195.495 283.253 194.358 283.253 192.962C283.253 191.566 284.389 190.429 285.786 190.429C287.183 190.429 288.318 191.565 288.318 192.962C288.318 194.359 287.183 195.495 285.786 195.495ZM285.786 191.782C285.134 191.782 284.606 192.311 284.606 192.961C284.606 193.611 285.134 194.141 285.786 194.141C286.437 194.141 286.966 193.611 286.966 192.961C286.967 192.311 286.437 191.782 285.786 191.782Z" fill="#2D3962"/>
<path d="M228.972 203.901C228.598 203.901 228.295 203.598 228.295 203.224V196.172C228.295 195.798 228.598 195.495 228.972 195.495C229.346 195.495 229.649 195.798 229.649 196.172V203.224C229.649 203.598 229.346 203.901 228.972 203.901Z" fill="#2D3962"/>
<path d="M232.497 200.375H225.444C225.071 200.375 224.768 200.072 224.768 199.698C224.768 199.325 225.071 199.021 225.444 199.021H232.497C232.871 199.021 233.174 199.325 233.174 199.698C233.174 200.072 232.871 200.375 232.497 200.375Z" fill="#2D3962"/>
<path d="M214.743 281.394C213.346 281.394 212.209 280.258 212.209 278.861C212.209 277.464 213.346 276.329 214.743 276.329C216.14 276.329 217.276 277.466 217.276 278.861C217.276 280.257 216.139 281.394 214.743 281.394ZM214.743 277.681C214.093 277.681 213.563 278.211 213.563 278.861C213.563 279.513 214.093 280.041 214.743 280.041C215.393 280.041 215.922 279.512 215.922 278.861C215.922 278.21 215.393 277.681 214.743 277.681Z" fill="#2D3962"/>
<path d="M194.176 79.9121C193.802 79.9121 193.499 79.609 193.499 79.2352V72.1822C193.499 71.8084 193.802 71.5054 194.176 71.5054C194.55 71.5054 194.853 71.8084 194.853 72.1822V79.2352C194.853 79.609 194.55 79.9121 194.176 79.9121Z" fill="#2D3962"/>
<path d="M197.702 76.385H190.65C190.276 76.385 189.973 76.082 189.973 75.7081C189.973 75.3343 190.276 75.0312 190.65 75.0312H197.702C198.076 75.0312 198.379 75.3343 198.379 75.7081C198.379 76.082 198.075 76.385 197.702 76.385Z" fill="#2D3962"/>
<path d="M448.12 136.081C446.723 136.081 445.587 134.944 445.587 133.547C445.587 132.151 446.723 131.015 448.12 131.015C449.517 131.015 450.651 132.151 450.651 133.547C450.652 134.944 449.517 136.081 448.12 136.081ZM448.12 132.368C447.468 132.368 446.94 132.897 446.94 133.547C446.94 134.198 447.469 134.727 448.12 134.727C448.77 134.727 449.299 134.198 449.299 133.547C449.3 132.897 448.77 132.368 448.12 132.368Z" fill="#2D3962"/>
<path d="M236.023 451.435L237.149 433.278L220.769 432.611L220.132 453.217L236.023 451.435Z" fill="#FFCEAB"/>
<path d="M237.035 443.477L220.414 442.792L220.094 450.981L236.235 450.607L237.035 443.477Z" fill="white"/>
<path d="M263.145 464.167C253.755 461.415 238.64 457.277 238.64 457.277L238.093 450.073L219.176 449.553C219.176 449.553 216.742 467.086 216.65 468.754C216.558 470.421 216.055 474.489 218.899 474.737C226.151 475.371 268.862 476.936 276.497 475.765C278.422 475.47 278.386 471.318 275.064 468.511C271.996 465.916 265.747 464.929 263.145 464.167Z" fill="#56B2A1"/>
<path d="M235.177 466.735C234.809 466.735 234.428 466.635 234.043 466.432C233.195 465.986 232.805 465.129 232.943 464.022C233.137 462.485 236.914 456.85 237.911 455.704C238.08 455.512 238.347 455.437 238.589 455.505C238.835 455.577 239.016 455.786 239.053 456.038C239.328 457.92 238.842 463.544 237.008 465.759C236.473 466.406 235.844 466.735 235.177 466.735ZM237.794 458.039C236.341 460.13 234.34 463.412 234.243 464.187C234.14 465.003 234.501 465.193 234.654 465.274C235.038 465.476 235.463 465.574 236 464.925C237.115 463.578 237.684 460.297 237.794 458.039Z" fill="#2D3962"/>
<path d="M240.699 466.828C239.881 466.828 239.183 466.363 238.708 465.492C237.968 464.132 237.742 457.351 237.882 455.838C237.905 455.584 238.076 455.366 238.317 455.281C238.556 455.196 238.827 455.258 239.005 455.443C240.327 456.81 243.217 461.66 243.022 464.528C242.932 465.83 242.218 466.638 241.008 466.807C240.904 466.822 240.801 466.828 240.699 466.828ZM239.151 457.801C239.194 460.348 239.486 464.182 239.859 464.866C240.252 465.59 240.656 465.533 240.828 465.51C241.254 465.45 241.657 465.28 241.714 464.439C241.834 462.694 240.379 459.7 239.151 457.801Z" fill="#2D3962"/>
<path d="M277.381 473.88C277.375 473.88 277.368 473.88 277.363 473.88L216.918 472.174C216.556 472.164 216.271 471.863 216.282 471.501C216.292 471.14 216.638 470.861 216.954 470.865L277.399 472.572C277.761 472.582 278.045 472.883 278.036 473.244C278.025 473.599 277.734 473.88 277.381 473.88Z" fill="#2D3962"/>
<path d="M251.797 465.153C251.665 465.153 251.533 465.114 251.418 465.032C251.123 464.824 251.054 464.414 251.263 464.12C253.291 461.264 254.774 460.574 254.937 460.503C255.269 460.36 255.654 460.517 255.796 460.849C255.937 461.18 255.786 461.562 255.457 461.705C255.418 461.724 254.126 462.35 252.332 464.877C252.204 465.056 252.002 465.153 251.797 465.153Z" fill="#2D3962"/>
<path d="M247.795 464.121C247.663 464.121 247.531 464.082 247.416 464C247.121 463.791 247.053 463.382 247.262 463.088C249.289 460.232 250.772 459.542 250.935 459.473C251.267 459.329 251.651 459.488 251.793 459.819C251.933 460.15 251.782 460.533 251.454 460.675C251.418 460.693 250.126 461.316 248.329 463.846C248.202 464.024 247.999 464.121 247.795 464.121Z" fill="#2D3962"/>
<path d="M244.204 463.002C244.072 463.002 243.941 462.963 243.826 462.881C243.53 462.672 243.462 462.263 243.671 461.969C245.698 459.113 247.181 458.423 247.344 458.352C247.676 458.208 248.06 458.366 248.203 458.698C248.344 459.029 248.193 459.412 247.865 459.554C247.826 459.573 246.534 460.198 244.739 462.726C244.611 462.905 244.408 463.002 244.204 463.002Z" fill="#2D3962"/>
<path d="M153.246 322.837C155.08 324.017 173.125 325.818 198.606 330.735C222.929 335.429 236.885 336.764 247.677 348.23C254.505 355.484 248.645 414.899 241.391 438.367C229.37 436.899 228.325 437.32 216.215 437.514C216.359 416.688 217.89 376.65 215.674 373.831C213.43 370.976 214.28 372.463 210.891 371.156L153.246 322.837Z" fill="#9BBBEA"/>
<path d="M217.033 392.276C216.719 392.276 216.464 392.024 216.461 391.709L216.241 367.025C216.239 366.709 216.492 366.45 216.809 366.448H216.813C217.127 366.448 217.383 366.7 217.386 367.015L217.606 391.699C217.609 392.015 217.355 392.274 217.039 392.276C217.036 392.276 217.035 392.276 217.033 392.276Z" fill="#2D3962"/>
<path d="M469.088 437.823C463.841 439.418 457.829 439.145 452.667 437.196C432.169 429.458 430.489 406.899 433.912 389.657C436.207 378.097 440.253 366.794 441.166 355.075C442.566 337.119 436.856 317.618 446.538 301.954C448.575 298.657 451.453 295.549 455.374 294.343C461.144 292.569 467.697 295.561 471.174 300.136C474.652 304.712 475.626 310.492 475.855 316.064C476.369 328.578 473.617 341.094 474.564 353.587C475.777 369.603 484.135 384.677 485.135 400.707C485.809 411.524 485.431 426.374 475.917 434.232C473.934 435.871 471.599 437.061 469.088 437.823Z" fill="#97DDCF"/>
<path d="M458.907 445.737C458.484 445.737 458.139 445.395 458.134 444.971L457.153 337.428C457.15 337 457.493 336.652 457.919 336.647C457.922 336.647 457.924 336.647 457.926 336.647C458.35 336.647 458.695 336.989 458.7 337.413L459.681 444.956C459.684 445.384 459.341 445.732 458.915 445.737C458.912 445.737 458.91 445.737 458.907 445.737Z" fill="#2D3962"/>
<path d="M472.918 440.281C468.289 440.539 463.468 439.289 459.722 436.953C444.845 427.675 448.656 410.766 455.393 398.665C459.909 390.552 465.789 382.933 469.219 374.462C474.476 361.482 474.311 346.123 485.77 336.275C488.183 334.202 491.232 332.416 494.694 332.213C499.788 331.913 504.424 335.261 506.2 339.238C507.975 343.215 507.441 347.642 506.349 351.785C503.895 361.092 498.789 369.83 496.692 379.197C494.003 391.204 497.335 403.765 494.469 415.747C492.535 423.83 488.822 434.702 479.289 438.829C477.302 439.689 475.132 440.158 472.918 440.281Z" fill="#56B2A1"/>
<path d="M464.414 447.272C464.39 447.272 464.369 447.271 464.346 447.268C463.92 447.232 463.605 446.858 463.642 446.432C465.766 421.729 489.134 353.757 489.369 353.074C489.508 352.67 489.948 352.457 490.353 352.594C490.756 352.733 490.972 353.173 490.833 353.577C490.597 354.259 467.291 422.051 465.183 446.564C465.148 446.967 464.81 447.272 464.414 447.272Z" fill="#2D3962"/>
<path d="M447.002 447.779L435.98 493.984H486.824L476.922 448.105C476.614 446.674 475.355 445.646 473.891 445.631L450.086 445.371C448.622 445.354 447.341 446.354 447.002 447.779Z" fill="#F4B04E"/>
<mask id="mask6_838_828" style="mask-type:luminance" maskUnits="userSpaceOnUse" x="435" y="445" width="52" height="49">
<path d="M447.002 447.779L435.98 493.984H486.824L476.922 448.105C476.614 446.674 475.355 445.646 473.891 445.631L450.086 445.371C448.622 445.354 447.341 446.354 447.002 447.779Z" fill="white"/>
</mask>
<g mask="url(#mask6_838_828)">
<g opacity="0.47">
<path d="M483.997 444.642C484.208 446.356 483.065 447.911 481.985 449.258C480.376 451.266 478.692 453.334 476.387 454.476C474.991 455.168 473.443 455.478 471.973 455.997C467.632 457.529 464.032 460.854 459.567 461.974C456.015 462.864 452.114 462.299 448.782 463.82C444.458 465.794 442.129 470.813 437.791 472.757L440.366 441.619L483.997 444.642Z" fill="white"/>
</g>
</g>
<mask id="mask7_838_828" style="mask-type:luminance" maskUnits="userSpaceOnUse" x="435" y="445" width="52" height="49">
<path d="M447.002 447.779L435.98 493.984H486.824L476.922 448.105C476.614 446.674 475.355 445.646 473.891 445.631L450.086 445.371C448.622 445.354 447.341 446.354 447.002 447.779Z" fill="white"/>
</mask>
<g mask="url(#mask7_838_828)">
<g opacity="0.52">
<path d="M433.29 493.575C436.385 490.791 439.525 487.976 443.225 486.07C446.926 484.165 451.313 483.238 455.296 484.448C456.295 484.751 457.265 485.186 458.303 485.293C461.42 485.616 463.959 483.041 466.435 481.12C473.108 475.941 481.945 474.736 490.33 473.711L490.879 497.487L433.615 497.253L433.29 493.575Z" fill="#D89741"/>
</g>
</g>
<path d="M371.761 477.48C371.761 477.48 360.562 452.841 392.667 441.267L398.608 411.627C398.857 410.386 400.223 410.323 401.16 411.173C403.106 412.938 408.123 419.296 408.123 419.296L418.273 418.963C418.273 418.963 423.428 412.532 425.663 410.907C426.246 410.483 428.406 410.094 428.764 412.54C430.505 424.449 435.696 489.331 432.986 492.041C430 495.027 369.521 492.041 369.521 492.041L371.761 477.48Z" fill="#FFD194"/>
<path d="M372.77 471.993C372.77 471.993 360.092 483.262 366.29 491.714C368.734 495.048 381.181 493.927 394.979 493.915C416.17 493.895 440.978 493.608 440.978 493.608C440.978 493.608 445.312 486.005 440.24 483.469C435.169 480.933 374.741 481.572 374.741 481.572" fill="#FFD194"/>
<path d="M440.794 494.18C440.609 494.18 440.425 494.09 440.314 493.922C440.142 493.657 440.216 493.302 440.48 493.129C441.592 492.403 442.753 490.241 442.71 488.182C442.686 486.943 442.217 485.205 440.131 483.961C437.594 482.447 429.747 483.178 420.665 484.025C416.409 484.421 411.587 484.871 406.724 485.148C391.346 486.024 376.182 484.424 376.03 484.408C375.716 484.375 375.49 484.092 375.523 483.777C375.556 483.464 375.824 483.231 376.153 483.27C376.304 483.286 391.381 484.875 406.659 484.005C411.501 483.729 416.313 483.281 420.557 482.885C430.223 481.986 437.856 481.272 440.717 482.979C443.252 484.491 443.823 486.631 443.854 488.159C443.907 490.712 442.498 493.178 441.106 494.089C441.012 494.15 440.903 494.18 440.794 494.18Z" fill="#2D3962"/>
<path d="M366.29 492.287C366.114 492.287 365.94 492.206 365.828 492.053C363.144 488.393 363.453 483.667 366.719 478.384C369.131 474.484 372.259 471.682 372.39 471.566C372.627 471.356 372.987 471.377 373.198 471.614C373.408 471.849 373.387 472.212 373.15 472.421C373.028 472.531 360.934 483.443 366.751 491.377C366.939 491.631 366.883 491.99 366.628 492.176C366.526 492.252 366.408 492.287 366.29 492.287Z" fill="#2D3962"/>
<path d="M411.67 428.538C411.67 429.454 410.926 430.197 410.011 430.197C409.095 430.197 408.352 429.454 408.352 428.538C408.352 427.623 409.095 426.879 410.011 426.879C410.926 426.879 411.67 427.622 411.67 428.538Z" fill="#2D3962"/>
<path d="M417.266 430.197C418.183 430.197 418.925 429.455 418.925 428.538C418.925 427.622 418.183 426.879 417.266 426.879C416.35 426.879 415.607 427.622 415.607 428.538C415.607 429.455 416.35 430.197 417.266 430.197Z" fill="#2D3962"/>
<path d="M406.692 485.148C406.419 485.148 406.177 484.951 406.129 484.672L402.536 463.777C402.482 463.465 402.692 463.168 403.003 463.115C403.318 463.052 403.61 463.27 403.664 463.582L407.257 484.477C407.312 484.789 407.101 485.085 406.791 485.138C406.757 485.146 406.725 485.148 406.692 485.148Z" fill="#2D3962"/>
<path d="M422.041 483.588C422.008 483.588 421.975 483.586 421.942 483.579C421.631 483.526 421.421 483.231 421.475 482.918L425.068 462.022C425.121 461.711 425.412 461.495 425.729 461.556C426.04 461.609 426.25 461.905 426.196 462.217L422.603 483.113C422.556 483.391 422.314 483.588 422.041 483.588Z" fill="#2D3962"/>
<path d="M414.687 483.637C414.38 483.637 414.126 483.395 414.114 483.087L413.446 465.93C413.434 465.614 413.68 465.348 413.995 465.335C414.307 465.336 414.578 465.569 414.59 465.885L415.26 483.042C415.272 483.358 415.025 483.624 414.71 483.637C414.702 483.637 414.694 483.637 414.687 483.637Z" fill="#2D3962"/>
<path d="M414.245 466.325C412.634 466.325 411.081 466.06 410.795 466.009C410.485 465.952 410.278 465.655 410.333 465.343C410.39 465.031 410.689 464.83 410.999 464.881C412.725 465.192 415.849 465.415 416.87 464.695C417.127 464.513 417.487 464.574 417.668 464.832C417.851 465.091 417.789 465.448 417.531 465.63C416.769 466.168 415.489 466.325 414.245 466.325Z" fill="#2D3962"/>
<path d="M413.713 433.921C413.565 433.921 413.417 433.864 413.308 433.754L411.542 431.988C411.39 431.835 411.336 431.612 411.401 431.407C411.468 431.203 411.641 431.053 411.852 431.017C412.819 430.857 415.151 430.524 415.903 430.902C416.157 431.029 416.317 431.268 416.33 431.541C416.341 431.773 416.366 432.393 414.011 433.836C413.92 433.894 413.816 433.921 413.713 433.921ZM413.162 431.989L413.792 432.618C414.184 432.36 414.551 432.089 414.813 431.867C414.385 431.869 413.786 431.915 413.162 431.989Z" fill="#2D3962"/>
<path d="M406.731 420.214C406.434 420.214 406.183 419.984 406.161 419.682C406.138 419.366 406.375 419.093 406.691 419.07C407.129 419.04 417.453 418.31 420.24 418.567C420.555 418.596 420.786 418.874 420.759 419.189C420.73 419.505 420.45 419.727 420.136 419.708C417.44 419.463 406.878 420.206 406.771 420.214C406.759 420.214 406.745 420.214 406.731 420.214Z" fill="#2D3962"/>
<g opacity="0.47">
<path d="M399.042 410.601C397.011 411.414 397.011 419.746 397.011 419.746C397.011 419.746 403.629 420.157 403.92 418.12C404.013 417.467 403.051 416.051 402.192 414.361C401.181 412.369 400.168 410.151 399.042 410.601Z" fill="white"/>
</g>
<g opacity="0.47">
<path d="M427.499 410.601C429.531 411.414 429.531 419.746 429.531 419.746C429.531 419.746 422.912 420.157 422.621 418.12C422.529 417.467 423.491 416.051 424.349 414.361C425.36 412.369 426.373 410.151 427.499 410.601Z" fill="white"/>
</g>
<path d="M391.504 445.549C391.33 445.549 391.16 445.468 391.053 445.331C390.825 445.043 390.764 444.966 393.417 433.734C393.49 433.427 393.796 433.232 394.106 433.309C394.413 433.38 394.603 433.69 394.531 433.998C393.62 437.86 392.17 444.137 392.075 444.922C392.076 444.94 392.077 444.958 392.077 444.977C392.077 445.293 391.821 445.549 391.504 445.549Z" fill="#2D3962"/>
<path d="M387.196 443.676C387.593 445.273 387.642 447.391 387.626 449.037C387.611 450.683 387.134 452.387 385.99 453.571C385.186 454.403 384.06 454.986 383.596 456.047C383.358 456.591 383.327 457.198 383.223 457.782C382.77 460.346 380.758 462.568 378.252 463.275C375.745 463.98 372.436 462.738 370.711 460.788C370.711 460.788 373.066 453.2 378.234 448.679C382.593 444.865 387.196 443.676 387.196 443.676Z" fill="#D89741"/>
<path d="M387.534 463.847C387.605 463.847 387.59 463.737 387.519 463.737C387.448 463.737 387.463 463.847 387.534 463.847Z" fill="#56B2A1"/>
<path d="M388.983 459.59C388.806 459.439 388.614 459.33 388.409 459.274C386.918 458.876 385.211 459.499 384.603 460.988C384.245 461.866 384.37 462.932 384.944 463.687C385.339 464.207 385.917 464.567 386.531 464.786C387.738 465.215 389.315 464.998 389.951 463.885C390.547 462.843 390.036 460.485 388.983 459.59Z" fill="#D89741"/>
<path d="M513.22 494.894H39.7808C39.1703 494.894 38.6748 494.4 38.6748 493.788C38.6748 493.177 39.1703 492.682 39.7808 492.682H513.22C513.831 492.682 514.326 493.177 514.326 493.788C514.326 494.4 513.831 494.894 513.22 494.894Z" fill="#2D3962"/>
<path d="M454.311 169.948H405.369C403.583 169.948 402.135 171.396 402.135 173.182V199.463C402.135 201.249 403.583 202.697 405.369 202.697H408.564V208.023C408.564 208.781 409.499 209.138 410.004 208.575L415.28 202.697H454.311C456.098 202.697 457.545 201.249 457.545 199.463V173.182C457.545 171.396 456.098 169.948 454.311 169.948Z" fill="#F4B04E"/>
<path d="M449.078 178.643H410.394C410.014 178.643 409.705 178.334 409.705 177.954C409.705 177.573 410.014 177.265 410.394 177.265H449.078C449.458 177.265 449.767 177.573 449.767 177.954C449.767 178.334 449.458 178.643 449.078 178.643Z" fill="white"/>
<path d="M449.078 187.178H410.394C410.014 187.178 409.705 186.87 409.705 186.489C409.705 186.109 410.014 185.8 410.394 185.8H449.078C449.458 185.8 449.767 186.109 449.767 186.489C449.767 186.871 449.458 187.178 449.078 187.178Z" fill="white"/>
<path d="M440.955 195.67H410.394C410.014 195.67 409.705 195.361 409.705 194.981C409.705 194.6 410.014 194.292 410.394 194.292H440.955C441.336 194.292 441.644 194.6 441.644 194.981C441.644 195.361 441.336 195.67 440.955 195.67Z" fill="white"/>
<path d="M407.309 151.395C407.309 152.67 406.275 153.704 404.999 153.704H373.593C372.318 153.704 371.284 152.67 371.284 151.395V131.997C371.284 130.722 372.318 129.688 373.593 129.688H404.999C406.275 129.688 407.309 130.722 407.309 131.997V151.395Z" fill="#FFD194"/>
<mask id="mask8_838_828" style="mask-type:luminance" maskUnits="userSpaceOnUse" x="371" y="129" width="37" height="25">
<path d="M407.309 151.395C407.309 152.67 406.275 153.704 404.999 153.704H373.593C372.318 153.704 371.284 152.67 371.284 151.395V131.997C371.284 130.722 372.318 129.688 373.593 129.688H404.999C406.275 129.688 407.309 130.722 407.309 131.997V151.395Z" fill="white"/>
</mask>
<g mask="url(#mask8_838_828)">
<path d="M406.183 155.52L393.276 141.303L406.158 128.454L405.245 127.343L388.939 143.605L373.066 126.12L372.104 127.179L385.011 141.397L372.128 154.246L373.041 155.357L385.974 142.459L388.893 145.675L392.266 142.31L405.22 156.581L406.183 155.52Z" fill="white"/>
</g>
<path d="M403.732 138.014C408.169 138.014 411.765 134.417 411.765 129.981C411.765 125.544 408.169 121.948 403.732 121.948C399.296 121.948 395.699 125.544 395.699 129.981C395.699 134.417 399.296 138.014 403.732 138.014Z" fill="#56B2A1"/>
<path d="M398.459 131.535H399.581V128.693H398.452V128.101C398.661 128.077 398.918 128.012 399.221 127.906C399.525 127.799 399.798 127.676 400.039 127.537H400.534V131.535H401.558V132.316H398.458L398.459 131.535Z" fill="white"/>
<path d="M402.774 132.179C402.534 132.033 402.351 131.779 402.224 131.417C402.096 131.055 402.032 130.558 402.032 129.927C402.032 129.295 402.096 128.797 402.224 128.436C402.351 128.074 402.534 127.82 402.774 127.674C403.013 127.528 403.314 127.455 403.676 127.455C404.037 127.455 404.339 127.529 404.577 127.678C404.816 127.826 405 128.081 405.128 128.44C405.255 128.799 405.319 129.295 405.319 129.928C405.319 130.559 405.255 131.055 405.128 131.415C405 131.775 404.816 132.029 404.577 132.177C404.338 132.325 404.037 132.401 403.676 132.401C403.315 132.4 403.013 132.325 402.774 132.179ZM404.092 131.469C404.187 131.37 404.252 131.217 404.286 131.013C404.321 130.808 404.339 130.527 404.339 130.17V129.682C404.339 129.325 404.321 129.044 404.286 128.839C404.252 128.635 404.187 128.483 404.092 128.383C403.995 128.283 403.858 128.232 403.677 128.232C403.495 128.232 403.357 128.282 403.262 128.383C403.167 128.482 403.102 128.635 403.067 128.839C403.032 129.044 403.014 129.324 403.014 129.682V130.17C403.014 130.527 403.032 130.809 403.067 131.013C403.102 131.217 403.167 131.369 403.262 131.469C403.357 131.569 403.495 131.619 403.677 131.619C403.858 131.619 403.995 131.569 404.092 131.469Z" fill="white"/>
<path d="M405.912 132.066C405.912 131.801 405.971 131.562 406.087 131.351C406.202 131.14 406.345 130.955 406.515 130.797C406.684 130.639 406.906 130.461 407.181 130.261C407.417 130.079 407.604 129.929 407.741 129.808C407.879 129.688 407.994 129.555 408.088 129.411C408.203 129.231 408.261 129.026 408.261 128.798C408.261 128.65 408.206 128.519 408.098 128.405C407.988 128.291 407.832 128.234 407.628 128.234C407.167 128.234 406.937 128.456 406.937 128.897V129.182H405.991C405.986 129.168 405.981 129.136 405.973 129.085C405.966 129.034 405.962 128.973 405.962 128.905C405.962 128.421 406.123 128.06 406.446 127.817C406.768 127.575 407.176 127.455 407.668 127.455C408.1 127.455 408.432 127.539 408.664 127.706C408.896 127.873 409.049 128.061 409.12 128.27C409.191 128.479 409.228 128.673 409.228 128.855C409.228 129.176 409.156 129.46 409.012 129.708C408.868 129.956 408.698 130.165 408.5 130.335C408.302 130.504 408.058 130.689 407.766 130.889C407.542 131.042 407.376 131.167 407.264 131.265C407.185 131.334 407.128 131.402 407.09 131.467H409.257V132.318H405.913V132.066H405.912Z" fill="white"/>
<path d="M344.367 205.107H314.651C313.427 205.107 312.435 204.115 312.435 202.89V177.064C312.435 175.84 313.427 174.848 314.651 174.848H344.367C345.591 174.848 346.583 175.84 346.583 177.064V202.89C346.583 204.114 345.591 205.107 344.367 205.107Z" fill="#FFD194"/>
<path d="M339.995 183.157H322.984C322.549 183.157 322.196 182.804 322.196 182.37C322.196 181.935 322.549 181.582 322.984 181.582H339.995C340.43 181.582 340.783 181.935 340.783 182.37C340.784 182.804 340.431 183.157 339.995 183.157Z" fill="white"/>
<path d="M319.605 182.368C319.605 183.008 319.086 183.526 318.447 183.526C317.808 183.526 317.289 183.008 317.289 182.368C317.289 181.729 317.808 181.21 318.447 181.21C319.086 181.21 319.605 181.729 319.605 182.368Z" fill="white"/>
<path d="M339.995 191.014H322.984C322.549 191.014 322.196 190.661 322.196 190.226C322.196 189.792 322.549 189.439 322.984 189.439H339.995C340.43 189.439 340.783 189.792 340.783 190.226C340.784 190.661 340.431 191.014 339.995 191.014Z" fill="white"/>
<path d="M319.605 190.226C319.605 190.866 319.086 191.384 318.447 191.384C317.808 191.384 317.289 190.866 317.289 190.226C317.289 189.587 317.808 189.068 318.447 189.068C319.086 189.068 319.605 189.587 319.605 190.226Z" fill="white"/>
<path d="M339.995 198.872H322.984C322.549 198.872 322.196 198.519 322.196 198.085C322.196 197.65 322.549 197.297 322.984 197.297H339.995C340.43 197.297 340.783 197.65 340.783 198.085C340.784 198.519 340.431 198.872 339.995 198.872Z" fill="white"/>
<path d="M319.605 198.085C319.605 198.724 319.086 199.243 318.447 199.243C317.808 199.243 317.289 198.724 317.289 198.085C317.289 197.445 317.808 196.927 318.447 196.927C319.086 196.927 319.605 197.444 319.605 198.085Z" fill="white"/>
<path d="M392.669 194.878H355.994C354.574 194.878 353.423 193.726 353.423 192.306V162.794C353.423 161.374 354.574 160.222 355.994 160.222H392.669C394.089 160.222 395.241 161.374 395.241 162.794V192.306C395.241 193.726 394.089 194.878 392.669 194.878Z" fill="#97DDCF"/>
<path d="M395.241 170.156V162.794C395.241 161.374 394.089 160.222 392.669 160.222H355.994C354.574 160.222 353.423 161.374 353.423 162.794V170.156C353.423 170.156 394.547 170.156 395.241 170.156Z" fill="#56B2A1"/>
<path d="M366.846 184.541H369.405V178.056H366.83V176.705C367.308 176.652 367.893 176.504 368.586 176.26C369.281 176.016 369.903 175.735 370.453 175.418H371.583V184.541H373.92V186.321H366.846V184.541Z" fill="white"/>
<path d="M375.946 185.55C375.251 184.909 374.905 184.037 374.905 182.936H377.146C377.146 183.498 377.287 183.937 377.567 184.255C377.848 184.573 378.237 184.732 378.735 184.732C379.222 184.732 379.607 184.565 379.888 184.231C380.169 183.897 380.309 183.407 380.309 182.76C380.309 182.167 380.167 181.717 379.88 181.408C379.594 181.102 379.218 180.947 378.751 180.947C378.433 180.947 378.164 181.017 377.941 181.154C377.719 181.292 377.517 181.477 377.336 181.71L375.27 181.456L375.7 175.416H382.01V177.355H377.623L377.48 179.771C377.733 179.612 378.01 179.483 378.306 179.382C378.604 179.281 378.963 179.231 379.388 179.231C380.32 179.231 381.08 179.53 381.668 180.129C382.257 180.728 382.551 181.605 382.551 182.759C382.551 183.945 382.212 184.868 381.534 185.525C380.856 186.182 379.923 186.51 378.736 186.51C377.57 186.513 376.639 186.192 375.946 185.55Z" fill="white"/>
<path d="M363.944 163.672C363.57 163.672 363.269 163.369 363.269 162.995V159.569C363.269 159.196 363.57 158.893 363.944 158.893C364.318 158.893 364.62 159.196 364.62 159.569V162.995C364.62 163.369 364.318 163.672 363.944 163.672Z" fill="#2D3962"/>
<path d="M374.332 163.672C373.958 163.672 373.656 163.369 373.656 162.995V159.569C373.656 159.196 373.958 158.893 374.332 158.893C374.706 158.893 375.008 159.196 375.008 159.569V162.995C375.008 163.369 374.706 163.672 374.332 163.672Z" fill="#2D3962"/>
<path d="M384.72 163.672C384.346 163.672 384.044 163.369 384.044 162.995V159.569C384.044 159.196 384.346 158.893 384.72 158.893C385.094 158.893 385.395 159.196 385.395 159.569V162.995C385.397 163.369 385.094 163.672 384.72 163.672Z" fill="#2D3962"/>
<path d="M347.509 153.421C352.4 143.19 348.071 130.931 337.84 126.04C327.609 121.149 315.35 125.478 310.459 135.709C305.568 145.94 309.897 158.199 320.128 163.09C330.359 167.981 342.618 163.652 347.509 153.421Z" fill="white"/>
<path d="M328.984 166.527C316.875 166.527 307.021 156.674 307.021 144.563C307.021 132.452 316.875 122.599 328.984 122.599C341.096 122.599 350.95 132.452 350.95 144.563C350.95 156.674 341.096 166.527 328.984 166.527ZM328.984 125.461C318.452 125.461 309.883 134.031 309.883 144.563C309.883 155.097 318.452 163.665 328.984 163.665C339.518 163.665 348.087 155.096 348.087 144.563C348.088 134.03 339.519 125.461 328.984 125.461Z" fill="#56B2A1"/>
<path d="M337.836 146.654H328.316C327.833 146.654 327.441 146.262 327.441 145.78V131.765C327.441 131.282 327.833 130.891 328.316 130.891C328.8 130.891 329.191 131.282 329.191 131.765V144.905H337.836C338.319 144.905 338.71 145.297 338.71 145.78C338.71 146.262 338.319 146.654 337.836 146.654Z" fill="#2D3962"/>
<path d="M82.2114 322.032C82.2114 322.032 66.9198 230.824 82.823 208.328C88.8363 199.822 116.136 205.948 116.136 205.948C129.182 219.148 135.865 232.833 140.65 250.764C145.436 268.696 154.169 307.478 155.798 325.966C140.778 326.002 82.2114 322.032 82.2114 322.032Z" fill="#F4B04E"/>
<path d="M136.591 311.527C136.591 311.527 151.498 317.278 151.887 323.005C152.228 328.023 135.103 323.771 135.103 323.771L136.591 311.527Z" fill="#FFCEAB"/>
<path d="M151.633 323.883C151.495 323.883 151.357 323.833 151.246 323.733C149.673 322.288 145.925 320.958 145.888 320.946C145.589 320.841 145.432 320.513 145.538 320.216C145.644 319.918 145.972 319.762 146.268 319.866C146.431 319.924 150.276 321.29 152.02 322.889C152.253 323.102 152.269 323.466 152.055 323.697C151.942 323.82 151.787 323.883 151.633 323.883Z" fill="#2D3962"/>
<path d="M148.951 325.626C148.824 325.626 148.695 325.584 148.589 325.497C147.209 324.369 144.235 323.326 144.205 323.316C143.906 323.212 143.748 322.885 143.852 322.587C143.956 322.287 144.284 322.13 144.581 322.234C144.712 322.28 147.779 323.356 149.314 324.611C149.558 324.811 149.595 325.172 149.394 325.416C149.282 325.556 149.117 325.626 148.951 325.626Z" fill="#2D3962"/>
<path d="M99.8497 245.8C92.4428 272.45 95.0043 272.475 87.1528 298.176C102.793 303.116 125.897 303.693 140.003 312.063C139.647 314.984 138.64 323.015 137.895 323.768C136.707 324.967 75.4823 330.64 60.4606 314.858C48.32 302.103 57.1503 226.582 83.9576 207.081C92.4185 200.924 99.8497 245.8 99.8497 245.8Z" fill="#F4B04E"/>
<path d="M118.918 326.565C118.602 326.565 118.345 326.31 118.345 325.992C118.345 325.676 118.601 325.42 118.918 325.42C122.012 325.42 134.476 324.336 136.945 324.119L139.314 312.525C130.103 308.617 118.937 306.221 108.131 303.903C100.524 302.271 93.3396 300.73 86.9812 298.72C86.6814 298.626 86.5144 298.308 86.6062 298.007C90.7615 284.404 92.0135 277.911 93.3384 271.036C94.5562 264.716 95.8159 258.182 99.3009 245.646C99.3849 245.34 99.7002 245.158 100.005 245.247C100.31 245.332 100.489 245.648 100.404 245.952C96.9318 258.444 95.6765 264.956 94.4633 271.253C93.1504 278.066 91.9095 284.506 87.8682 297.798C94.043 299.709 101.01 301.203 108.373 302.783C119.4 305.148 130.803 307.595 140.197 311.656C140.446 311.764 140.586 312.031 140.531 312.296L137.984 324.766C137.933 325.014 137.727 325.199 137.474 325.221C136.857 325.277 122.39 326.565 118.918 326.565Z" fill="#2D3962"/>
<path d="M185.386 190.808C182.481 190.612 181.634 193.626 181.533 187.024C181.48 183.55 179.852 179.589 179.547 176.663C179.391 175.172 180.086 174.469 180.528 174.205C181.263 173.765 182.022 174.188 182.022 174.188C182.266 173.009 184.001 173.166 184.361 173.218C185.061 173.319 185.488 173.995 185.488 173.995C185.488 173.995 185.801 173.088 187.375 173.128C188.327 173.152 188.863 173.426 189.149 174.037C189.149 174.037 190.957 173.571 191.527 174.944C191.807 175.618 193.315 179.767 193.462 187.287C193.553 191.92 191.722 191.195 188.931 191.007L185.386 190.808Z" fill="#FFCEAB"/>
<path d="M189.992 182.478C189.64 182.478 189.349 182.198 189.339 181.844C189.242 178.668 188.699 174.631 188.694 174.593C188.643 174.24 188.883 173.91 189.235 173.853C189.591 173.799 189.92 174.029 189.984 174.378C189.988 174.406 190.545 178.505 190.646 181.804C190.657 182.165 190.374 182.467 190.013 182.478C190.006 182.478 189.998 182.478 189.992 182.478Z" fill="#2D3962"/>
<path d="M186.77 182.329C186.418 182.329 186.127 182.049 186.118 181.695C186.019 178.514 185.203 174.319 185.195 174.277C185.125 173.923 185.354 173.579 185.707 173.508C186.061 173.435 186.404 173.665 186.477 174.019C186.485 174.06 187.323 178.369 187.425 181.655C187.436 182.015 187.153 182.317 186.791 182.329C186.784 182.327 186.778 182.329 186.77 182.329Z" fill="#2D3962"/>
<path d="M183.484 182.378C183.132 182.378 182.842 182.098 182.832 181.744C182.732 178.484 181.924 174.325 181.889 174.151C181.822 173.804 182.037 173.459 182.38 173.38C182.724 173.298 183.065 173.496 183.158 173.835C183.162 173.854 183.169 173.881 183.172 173.9C183.208 174.08 184.035 178.34 184.138 181.706C184.149 182.066 183.865 182.368 183.504 182.379C183.497 182.377 183.491 182.378 183.484 182.378Z" fill="#2D3962"/>
<path d="M176.866 180.954C175.592 181.939 177.317 184.461 178.976 186.515C179.761 187.488 180.695 188.865 181.493 189.223C182.669 189.752 182.263 184.953 182.263 184.953C182.263 184.953 179.426 178.975 176.866 180.954Z" fill="#FFCEAB"/>
<path d="M181.116 184.3C180.874 184.3 180.641 184.165 180.528 183.933C180.519 183.915 179.675 182.204 178.463 181.289C178.174 181.072 178.118 180.662 178.335 180.373C178.553 180.085 178.963 180.027 179.251 180.245C180.718 181.352 181.665 183.278 181.704 183.36C181.862 183.684 181.726 184.075 181.402 184.233C181.31 184.279 181.213 184.3 181.116 184.3Z" fill="#2D3962"/>
<path d="M178.483 190.28C178.818 198.346 173.223 235.214 169.231 235.214C160.059 235.214 134.942 216.984 118.651 208.839L125.245 250.728C133.05 254.058 166.742 270.722 179.865 264.992C204.548 254.215 195.664 187.645 195.664 187.645L178.483 190.28Z" fill="#F4B04E"/>
<path d="M144.89 272.305C144.602 272.305 144.354 272.088 144.321 271.796C139.885 231.87 118.458 209.46 118.243 209.239C118.022 209.012 118.027 208.649 118.253 208.429C118.478 208.208 118.841 208.212 119.062 208.439C119.281 208.664 140.977 231.332 145.459 271.669C145.493 271.983 145.268 272.266 144.953 272.302C144.932 272.304 144.911 272.305 144.89 272.305Z" fill="#2D3962"/>
<path d="M87.1629 187.166C87.1629 187.166 80.35 186.941 80.0381 177.464C80.0381 177.464 84.8414 179.044 86.8267 179.003C86.8267 179.003 87.0313 187.497 87.1629 187.166Z" fill="#2D3962"/>
<path d="M134.709 145.164C135.655 149.108 137.491 156.194 138.07 160.202C139.17 167.797 139.955 172.888 139.076 180.55C138.582 184.852 137.183 189.165 134.431 192.749C129.168 199.601 114.472 198.633 114.472 198.633L115.056 207.228C115.056 207.228 101.624 212.768 88.5381 206.776L86.5252 180.547C86.5252 180.547 81.0417 180.557 77.6098 178.025C74.253 175.549 75.0217 165.763 82.8135 165.775C90.0279 165.786 90.843 166.705 90.843 166.705L98.1836 147.348L134.709 145.164Z" fill="#FFCEAB"/>
<path d="M81.1696 173.063C81.0147 173.063 80.861 173.001 80.7471 172.877C80.5336 172.644 80.5491 172.282 80.7825 172.068C82.708 170.303 86.3999 169.827 86.5558 169.808C86.8776 169.767 87.1564 169.991 87.1951 170.305C87.2338 170.619 87.0115 170.905 86.6974 170.945C86.6631 170.949 83.2112 171.396 81.5556 172.913C81.4472 173.013 81.3078 173.063 81.1696 173.063Z" fill="#2D3962"/>
<path d="M84.7829 175.531C84.5639 175.531 84.3549 175.405 84.2597 175.192C83.7831 174.128 83.3816 172.782 83.0675 171.189C83.0066 170.878 83.2079 170.577 83.5187 170.516C83.8284 170.453 84.1303 170.658 84.1912 170.968C84.5617 172.847 85.0008 174.047 85.3038 174.724C85.4332 175.012 85.3038 175.351 85.0162 175.48C84.941 175.515 84.8614 175.531 84.7829 175.531Z" fill="#2D3962"/>
<path d="M117.286 166.681C117.368 167.692 118.29 168.442 119.348 168.358C120.405 168.274 121.195 167.385 121.114 166.375C121.032 165.364 120.11 164.614 119.052 164.698C117.995 164.783 117.205 165.67 117.286 166.681Z" fill="#2D3962"/>
<path d="M130.001 166.953C130.806 167.608 132.018 167.511 132.707 166.737C133.397 165.963 133.304 164.804 132.498 164.149C131.693 163.494 130.481 163.591 129.792 164.366C129.102 165.139 129.196 166.297 130.001 166.953Z" fill="#2D3962"/>
<path d="M124.17 178.84C123.575 178.84 122.968 178.766 122.372 178.615C121.151 178.308 120.077 177.721 119.267 176.918C119.043 176.695 119.041 176.333 119.263 176.108C119.485 175.884 119.848 175.881 120.073 176.105C120.727 176.754 121.643 177.252 122.651 177.505C123.759 177.784 124.903 177.756 125.872 177.428C126.17 177.328 126.497 177.486 126.598 177.786C126.7 178.085 126.539 178.41 126.24 178.511C125.596 178.73 124.891 178.84 124.17 178.84Z" fill="#2D3962"/>
<path d="M114.529 201.767L101.617 198.563C101.617 198.563 101.814 196.916 102.213 197.068C105.936 198.481 114.366 198.669 114.366 198.669L114.529 201.767Z" fill="#2D3962"/>
<path d="M121.115 159.014C119.811 158.042 116.39 159.042 115.431 159.547C115.431 159.547 114.771 160.513 115.611 161.38C116.59 162.39 119.78 161.527 120.971 161.367C121.068 161.353 121.169 161.339 121.248 161.284C121.344 161.216 121.39 161.102 121.428 160.995C121.572 160.586 121.681 160.147 121.582 159.728C121.51 159.42 121.346 159.187 121.115 159.014Z" fill="#2D3962"/>
<path d="M133.868 158.143C132.585 157.146 129.144 158.078 128.175 158.566C128.175 158.566 127.494 159.518 128.316 160.402C129.274 161.431 132.48 160.631 133.675 160.493C133.772 160.482 133.873 160.47 133.953 160.415C134.052 160.35 134.099 160.237 134.14 160.13C134.293 159.724 134.411 159.287 134.321 158.866C134.254 158.556 134.095 158.32 133.868 158.143Z" fill="#2D3962"/>
<path d="M79.5059 139.941C74.1418 148.598 75.1736 160.917 77.6323 167.727C77.6323 167.727 85.4838 164.052 91.5723 167.844C93.5742 169.092 92.8287 175.069 98.5434 174.47C103.818 173.917 101.766 161.381 101.197 151.406C101.197 151.406 129.072 152.506 134.481 145.19C136.359 142.65 136.568 137.728 130.861 133.267C122.317 126.591 83.7684 133.062 79.5059 139.941Z" fill="#2D3962"/>
<path d="M101.649 210.788C98.9478 210.788 96.6418 210.429 94.7992 209.97C89.8985 208.75 87.17 206.631 87.0561 206.541C86.8073 206.345 86.7653 205.986 86.961 205.737C87.1557 205.488 87.5162 205.446 87.7651 205.641C87.8701 205.724 98.4844 213.809 115.126 206.719C115.42 206.594 115.755 206.73 115.877 207.021C116.001 207.312 115.866 207.648 115.575 207.772C110.25 210.042 105.54 210.788 101.649 210.788Z" fill="#2D3962"/>
</svg>
