<svg width="918" height="832" viewBox="0 0 918 832" fill="none" xmlns="http://www.w3.org/2000/svg">
<path d="M-87.3475 480.356C-52.4291 366.79 56.6421 134.262 213.579 112.677C370.516 91.093 458.268 -126.01 482.527 -231.863" stroke="white" stroke-width="2"/>
<path d="M-23.4423 593.295C11.4762 479.729 120.547 247.201 277.484 225.616C434.421 204.032 522.173 -13.0708 546.433 -118.924" stroke="white" stroke-width="2"/>
<path d="M-68.1327 516.938C-33.2142 403.371 75.8569 170.843 232.794 149.258C389.731 127.674 477.483 -89.4287 501.742 -195.282" stroke="white" stroke-width="2"/>
<path d="M-4.22742 629.877C30.6911 516.31 139.762 283.782 296.699 262.197C453.636 240.613 541.388 23.5103 565.647 -82.343" stroke="white" stroke-width="2"/>
<path d="M-43.1766 555.725C-8.25816 442.159 100.813 209.63 257.75 188.046C414.687 166.462 502.439 -50.6411 526.698 -156.494" stroke="white" stroke-width="2"/>
<path d="M20.7286 668.664C55.6471 555.098 164.718 322.569 321.655 300.985C478.592 279.401 566.344 62.2979 590.603 -43.5554" stroke="white" stroke-width="2"/>
<path d="M-212.369 258.87C-177.451 145.304 -68.3794 -87.2246 88.5574 -108.809C245.494 -130.393 333.247 -347.496 357.506 -453.349" stroke="white" stroke-width="2"/>
<path d="M-148.463 371.81C-113.544 258.244 -4.47314 25.7152 152.464 4.1309C309.401 -17.4534 397.153 -234.556 421.412 -340.409" stroke="white" stroke-width="2"/>
<path d="M-193.155 295.452C-158.237 181.885 -49.1655 -50.6432 107.771 -72.2275C264.708 -93.8118 352.461 -310.915 376.72 -416.768" stroke="white" stroke-width="2"/>
<path d="M-129.249 408.39C-94.3304 294.823 14.7407 62.2948 171.678 40.7105C328.614 19.1262 416.367 -197.977 440.626 -303.83" stroke="white" stroke-width="2"/>
<path d="M-168.198 334.239C-133.28 220.673 -24.2085 -11.8561 132.728 -33.4404C289.665 -55.0247 377.418 -272.127 401.677 -377.981" stroke="white" stroke-width="2"/>
<path d="M-104.292 447.178C-69.3734 333.612 39.6978 101.083 196.635 79.4991C353.571 57.9147 441.324 -159.188 465.583 -265.041" stroke="white" stroke-width="2"/>
<path d="M164.349 1022.94C203.043 897.094 323.91 639.42 497.818 615.501C671.726 591.583 768.968 351.002 795.851 233.702" stroke="white" stroke-width="2"/>
<path d="M235.165 1148.09C273.86 1022.25 394.726 764.572 568.634 740.654C742.542 716.735 839.785 476.155 866.667 358.854" stroke="white" stroke-width="2"/>
<path d="M185.642 1063.48C224.336 937.631 345.202 679.957 519.111 656.038C693.019 632.12 790.261 391.539 817.144 274.239" stroke="white" stroke-width="2"/>
<path d="M256.458 1188.63C295.153 1062.78 416.019 805.109 589.927 781.191C763.835 757.272 861.078 516.691 887.96 399.391" stroke="white" stroke-width="2"/>
<path d="M213.298 1106.46C251.992 980.613 372.859 722.939 546.767 699.02C720.675 675.102 817.917 434.521 844.8 317.221" stroke="white" stroke-width="2"/>
<path d="M284.112 1231.61C322.807 1105.77 443.673 848.091 617.581 824.173C791.49 800.254 888.732 559.674 915.614 442.373" stroke="white" stroke-width="2"/>
<path d="M25.8076 777.504C64.5022 651.656 185.369 393.981 359.277 370.063C533.185 346.144 630.427 105.564 657.31 -11.737" stroke="white" stroke-width="2"/>
<path d="M96.6249 902.657C135.32 776.809 256.186 519.134 430.094 495.216C604.002 471.297 701.245 230.717 728.127 113.416" stroke="white" stroke-width="2"/>
<path d="M47.0995 818.041C85.7942 692.193 206.66 434.519 380.569 410.6C554.477 386.682 651.719 146.101 678.602 28.8006" stroke="white" stroke-width="2"/>
<path d="M117.916 943.192C156.611 817.345 277.477 559.67 451.385 535.752C625.293 511.833 722.536 271.252 749.418 153.952" stroke="white" stroke-width="2"/>
<path d="M74.7558 861.023C113.45 735.175 234.317 477.501 408.225 453.582C582.133 429.664 679.375 189.083 706.258 71.7826" stroke="white" stroke-width="2"/>
<path d="M145.572 986.175C184.267 860.328 305.133 602.653 479.041 578.735C652.95 554.816 750.192 314.235 777.074 196.935" stroke="white" stroke-width="2"/>
</svg>
