<svg width="888" height="832" viewBox="0 0 888 832" fill="none" xmlns="http://www.w3.org/2000/svg">
<path d="M398.37 961.314C434.635 828.969 552.266 556.652 732.666 526.146C913.066 495.64 1006.64 241.89 1030.87 118.829" stroke="#FFDE30" stroke-opacity="0.7" stroke-width="2"/>
<path d="M476.165 1089.42C512.43 957.071 630.061 684.754 810.461 654.248C990.861 623.742 1084.43 369.992 1108.67 246.931" stroke="#FFDE30" stroke-opacity="0.7" stroke-width="2"/>
<path d="M421.853 1002.86C458.119 870.514 575.75 598.197 756.15 567.691C936.55 537.185 1030.12 283.435 1054.35 160.374" stroke="#FFDE30" stroke-opacity="0.7" stroke-width="2"/>
<path d="M499.648 1130.96C535.914 998.615 653.545 726.298 833.945 695.792C1014.34 665.286 1107.91 411.536 1132.15 288.475" stroke="#FFDE30" stroke-opacity="0.7" stroke-width="2"/>
<path d="M452.046 1046.75C488.311 914.401 605.942 642.085 786.342 611.578C966.742 581.072 1060.31 327.323 1084.55 204.261" stroke="#FFDE30" stroke-opacity="0.7" stroke-width="2"/>
<path d="M529.839 1174.85C566.104 1042.5 683.735 770.186 864.135 739.68C1044.54 709.174 1138.11 455.424 1162.34 332.363" stroke="#FFDE30" stroke-opacity="0.7" stroke-width="2"/>
<path d="M246.156 710.081C282.422 577.736 400.053 305.419 580.453 274.913C760.852 244.407 854.422 -9.34277 878.657 -132.404" stroke="#FFDE30" stroke-opacity="0.7" stroke-width="2"/>
<path d="M323.952 838.183C360.217 705.838 477.849 433.522 658.248 403.015C838.648 372.509 932.218 118.76 956.453 -4.30177" stroke="#FFDE30" stroke-opacity="0.7" stroke-width="2"/>
<path d="M269.639 751.627C305.905 619.282 423.536 346.965 603.936 316.459C784.336 285.953 877.906 32.2036 902.141 -90.8579" stroke="#FFDE30" stroke-opacity="0.7" stroke-width="2"/>
<path d="M347.435 879.727C383.701 747.382 501.332 475.065 681.732 444.559C862.132 414.053 955.702 160.303 979.937 37.2417" stroke="#FFDE30" stroke-opacity="0.7" stroke-width="2"/>
<path d="M299.832 795.514C336.097 663.169 453.728 390.852 634.128 360.346C814.528 329.84 908.098 76.0903 932.333 -46.9712" stroke="#FFDE30" stroke-opacity="0.7" stroke-width="2"/>
<path d="M377.627 923.616C413.892 791.271 531.523 518.954 711.923 488.448C892.323 457.942 985.893 204.192 1010.13 81.1308" stroke="#FFDE30" stroke-opacity="0.7" stroke-width="2"/>
<path d="M144.67 396.941C175.285 285.215 274.589 55.3249 426.883 29.5715C579.177 3.81818 658.169 -210.398 678.628 -314.286" stroke="#FFDE30" stroke-opacity="0.7" stroke-width="2"/>
<path d="M210.344 505.084C240.96 393.358 340.264 163.468 492.558 137.715C644.852 111.962 723.844 -102.254 744.303 -206.143" stroke="#FFDE30" stroke-opacity="0.7" stroke-width="2"/>
<path d="M164.496 432.012C195.111 320.287 294.415 90.3967 446.709 64.6433C599.003 38.89 677.995 -175.326 698.454 -279.214" stroke="#FFDE30" stroke-opacity="0.7" stroke-width="2"/>
<path d="M230.171 540.156C260.786 428.43 360.09 198.54 512.384 172.786C664.678 147.033 743.67 -67.1827 764.129 -171.071" stroke="#FFDE30" stroke-opacity="0.7" stroke-width="2"/>
<path d="M189.983 469.063C220.598 357.337 319.903 127.447 472.197 101.694C624.49 75.9402 703.482 -138.275 723.942 -242.164" stroke="#FFDE30" stroke-opacity="0.7" stroke-width="2"/>
<path d="M255.657 577.206C286.272 465.481 385.577 235.591 537.87 209.837C690.164 184.084 769.156 -30.1319 789.615 -134.021" stroke="#FFDE30" stroke-opacity="0.7" stroke-width="2"/>
<path d="M16.1716 184.85C46.787 73.1238 146.091 -156.766 298.385 -182.52C450.679 -208.273 529.671 -422.489 550.13 -526.378" stroke="#FFDE30" stroke-opacity="0.7" stroke-width="2"/>
<path d="M81.8474 292.993C112.463 181.268 211.767 -48.6224 364.061 -74.3757C516.355 -100.129 595.347 -314.345 615.806 -418.233" stroke="#FFDE30" stroke-opacity="0.7" stroke-width="2"/>
<path d="M35.9968 219.923C66.6122 108.197 165.916 -121.693 318.21 -147.447C470.504 -173.2 549.496 -387.416 569.955 -491.304" stroke="#FFDE30" stroke-opacity="0.7" stroke-width="2"/>
<path d="M101.672 328.065C132.287 216.339 231.591 -13.5511 383.885 -39.3044C536.179 -65.0578 615.171 -279.274 635.63 -383.162" stroke="#FFDE30" stroke-opacity="0.7" stroke-width="2"/>
<path d="M61.4841 256.972C92.0995 145.246 191.404 -84.6439 343.698 -110.397C495.991 -136.151 574.983 -350.366 595.443 -454.255" stroke="#FFDE30" stroke-opacity="0.7" stroke-width="2"/>
<path d="M127.159 365.116C157.774 253.39 257.079 23.5002 409.372 -2.25318C561.666 -28.0065 640.658 -242.222 661.117 -346.111" stroke="#FFDE30" stroke-opacity="0.7" stroke-width="2"/>
</svg>
